<svg xmlns="http://www.w3.org/2000/svg" viewBox="0 0 120 120" width="120" height="120" role="img" aria-label="a tap">
<title>a tap</title>
<g fill="none" stroke="#16181d" stroke-width="5" stroke-linecap="round" stroke-linejoin="round">
<path d="M30 36h22v20H30Z" fill="#b9c4cc"/>
<path d="M52 40h30v10a12 12 0 0 1-12 12h-6" fill="none" stroke-width="9" stroke="#b9c4cc"/>
<path d="M52 40h30v10a12 12 0 0 1-12 12h-6"/>
<path d="M30 36h22v20H30Z"/>
<path d="M28 22h26" stroke-width="7"/>
<path d="M41 22v14"/>
<path d="M64 76c0 5-4 7-4 11a4 4 0 0 0 8 0c0-4-4-6-4-11Z" fill="#4aa3df"/>
</g>
</svg>
